<svg width="8" height="8" viewBox="0 0 8 8" fill="none" xmlns="http://www.w3.org/2000/svg">
<path d="M7.58975 3.60119C7.48398 3.60119 7.38249 3.64319 7.3077 3.71798C7.23292 3.79276 7.19092 3.89425 7.19092 4.00003V7.19097H0.809025V0.809089H3.99997C4.14246 0.809089 4.27414 0.733101 4.34539 0.609704C4.41664 0.486308 4.41664 0.3342 4.34539 0.210798C4.27414 0.0873965 4.14247 0.0114136 3.99997 0.0114136H0.410221C0.304452 0.0114136 0.202956 0.0534136 0.12817 0.1282C0.0533831 0.202986 0.0113831 0.304473 0.0113831 0.410251V7.58974C0.0113831 7.69551 0.0533831 7.797 0.12817 7.87179C0.202956 7.94658 0.304443 7.98858 0.410221 7.98858H7.58972C7.69549 7.98858 7.79698 7.94658 7.87177 7.87179C7.94656 7.797 7.98856 7.69552 7.98856 7.58974V3.99999C7.98856 3.89423 7.94656 3.79273 7.87177 3.71794C7.79698 3.64316 7.6955 3.60116 7.58972 3.60116L7.58975 3.60119Z" fill="#E6F44F"/>
<path d="M7.74206 0.0421299C7.69371 0.0220973 7.64196 0.0116136 7.58968 0.0114136H5.59532C5.45283 0.0114136 5.32115 0.0874017 5.2499 0.210798C5.17865 0.334195 5.17865 0.486303 5.2499 0.609705C5.32115 0.733107 5.45282 0.80909 5.59532 0.80909H6.62677L3.71788 3.71798H3.71795C3.64096 3.7923 3.59709 3.89439 3.59614 4.00137C3.59529 4.10841 3.63736 4.21123 3.71301 4.28689C3.78866 4.36254 3.89149 4.40461 3.99853 4.40376C4.1055 4.40281 4.20759 4.35894 4.28192 4.28195L7.1908 1.37305V2.40451C7.1908 2.547 7.26679 2.67868 7.39019 2.74993C7.51359 2.82118 7.66569 2.82118 7.78909 2.74993C7.9125 2.67868 7.98848 2.54701 7.98848 2.40451V0.410147C7.98841 0.331288 7.96498 0.254231 7.92104 0.188728C7.87717 0.123157 7.81487 0.0721419 7.74201 0.0420273L7.74206 0.0421299Z" fill="#E6F44F"/>
</svg>
